<?xml version="1.0" encoding="UTF-8"?>
<svg id="Layer_2" data-name="Layer 2" xmlns="http://www.w3.org/2000/svg" viewBox="0 0 1405.18 2048">
  <defs>
    <style>
      .cls-1 {
        fill: #020202;
      }
    </style>
  </defs>
  <g id="Layer_1-2" data-name="Layer 1">
    <g>
      <path class="cls-1" d="M8.4,1386.81c21.64-43.34,85.43-36.96,99.76,9.32,10.3,33.29,23.19,65.86,38.42,97.1,74.42,152.63,268.92,366.36,435.58,415.63,55.12,16.29,178.5,21.35,232.67,2.21,217.12-76.74,405.32-298.71,481.86-516.09,15.78-44.81,78.44-49.71,99.16-6.96.55,1.14,1.09,2.32,1.6,3.52,18.46,43.37-.48,52.79-12.3,85.02-20.34,55.41-62.56,141.29-95.85,190.04-234.22,343.03-607.82,541.13-987.47,216.16-89.02-76.2-214.51-235.52-263.53-340.82-6.18-13.28-35.39-88.63-37.01-99.47-3.2-21.48-.36-40.7,7.1-55.64Z"/>
      <path class="cls-1" d="M981.33,5.1c120.4-36.7,135.71,208.87,130.08,283.25-4.95,65.44-50.68,232.96-143.78,178.14-79.88-47.03-80.82-268.61-59.9-347.77,8.18-30.96,41.8-103.93,73.6-113.62Z"/>
      <path class="cls-1" d="M434.04,25.39c81.8,78.52,83.55,313.92,20.61,406.35-37.23,54.67-90.94,63.39-130.08,5.3-56.62-84.04-65.3-369.53,33.18-425.63,38.38-21.86,51.69-9.63,76.28,13.97Z"/>
    </g>
  </g>
</svg>